Coordinates
version=1
nRows=7
nColumns=33
inDegrees=yes

Units are S.I. units (second, meters, Newtons, ...)
Angles are in degrees.

endheader
time	ground_thorax_rot_x	ground_thorax_rot_y	ground_thorax_rot_z	ground_thorax_tx	ground_thorax_ty	ground_thorax_tz	clav_prot_r	clav_elev_r	scapula_abduction_r	scapula_elevation_r	scapula_upward_rot_r	scapula_winging_r	shoulder_elv_r	plane_of_elev_r	axial_rot_r	elbow_flexion_r	pro_sup_r	wrist_flex_r	wrist_dev_r	clav_prot_l	clav_elev_l	scapula_abduction_l	scapula_elevation_l	scapula_upward_rot_l	scapula_winging_l	shoulder_elv_l	plane_of_elev_l	axial_rot_l	elbow_flexion_l	pro_sup_l	wrist_flex_l	wrist_dev_l
      2.50000000	      2.60190159	      2.41885644	     12.02475492	     -0.12292346	      1.03682593	      0.02431889	      6.06504015	     11.85986197	     21.58475141	      7.37808956	     23.33491069	    -11.66954921	     12.02115568	    -74.49022420	     59.32692454	     51.89717711	    -26.51408513	     70.00000021	    -24.99999983	     10.25283775	     -4.61265097	    -14.92326979	    -21.01750363	    -43.06890621	     -1.20760791	     62.29530355	    -41.09401661	     -7.37390050	     66.89774071	     23.17398423	      0.63522687	    -24.99999983
      2.51000000	      2.62449204	      2.48896312	     11.98840743	     -0.12292301	      1.03684402	      0.02451052	      5.80990695	     11.81262942	     21.29678672	      7.27459744	     23.55557232	    -11.59272181	     11.92098799	    -74.38094264	     59.48999214	     51.73025620	    -26.71697161	     70.00000021	    -24.99999983	     10.16433235	     -4.76283157	    -14.83423970	    -20.97311601	    -43.28118470	     -1.26712402	     62.38136527	    -40.71508405	     -7.01923474	     66.47544982	     23.08740082	      0.27007479	    -24.99999983
      2.52000000	      2.61312029	      2.55672681	     12.06269002	     -0.12319949	      1.03640677	      0.02456794	      5.80439942	     11.78887790	     21.29646024	      7.25506074	     23.55584154	    -11.59692535	     11.88832053	    -74.34490420	     59.51728332	     51.77650571	    -26.72126573	     70.00000021	    -24.99999983	     10.15665938	     -4.80139706	    -14.81245026	    -20.92325645	    -43.25225108	     -1.26860087	     62.40416797	    -40.61443814	     -7.00007724	     66.52509292	     23.07968430	      0.23747799	    -24.99999983
      2.53000000	      2.42407583	      3.11273372	     12.12532971	     -0.12318128	      1.03624672	      0.02500456	      5.13123115	     11.57693973	     20.10480194	      7.08631124	     23.59969500	    -11.20775297	     12.09090230	    -74.21076811	     59.77640858	     52.14708261	    -27.77239356	     70.00000021	    -24.99999983	     10.35785893	     -4.99011079	    -15.53040898	    -21.24371528	    -44.38847587	     -1.12476546	     63.47789932	    -39.70170947	     -7.21418583	     66.33621839	     23.24667334	     -2.03681804	    -24.99999983
      2.54000000	      2.40791724	      3.14594830	     12.24073556	     -0.12339964	      1.03589161	      0.02509330	      5.12319126	     11.56106817	     20.13650826	      7.05728888	     23.64715114	    -11.22276406	     12.10967641	    -74.14010101	     59.75879706	     52.17930408	    -27.77109456	     70.00000021	    -24.99999983	     10.35789320	     -5.01492624	    -15.51743316	    -21.20078272	    -44.34672211	     -1.12062040	     63.49994411	    -39.63513269	     -7.19155497	     66.36431582	     23.24210812	     -2.04605261	    -24.99999983
      2.55000000	      2.35689260	      3.24748765	     12.23163755	     -0.12351957	      1.03553704	      0.02522876	      5.12371321	     11.53417598	     20.15225151	      7.03243824	     23.65341923	    -11.22694722	     12.09093039	    -74.01922962	     59.75502434	     52.42236257	    -27.74557406	     70.00000021	    -24.99999983	     10.35281484	     -5.09061736	    -15.47719812	    -21.08396396	    -44.24645104	     -1.11329769	     63.59903707	    -39.50465237	     -7.03662732	     66.35824309	     23.23591529	     -2.11083778	    -24.99999983
      2.56000000	      2.38348623	      3.29382226	     12.01046914	     -0.12345564	      1.03514108	      0.02551874	      4.99410462	     11.53726183	     19.91774945	      7.03334243	     23.67277873	    -11.15614893	     12.54399756	    -73.92824708	     59.32214039	     53.01668102	    -27.77715140	     70.00000021	    -24.99999983	     10.32218576	     -5.26034942	    -15.41455647	    -20.91119610	    -44.22053942	     -1.12234161	     63.73954635	    -39.28214936	     -6.71663274	     66.32685250	     23.26927525	     -2.40839158	    -24.99999983
